<?xml version="1.0" encoding="UTF-8"?>
<!DOCTYPE svg PUBLIC "-//W3C//DTD SVG 1.1//EN" "http://www.w3.org/Graphics/SVG/1.1/DTD/svg11.dtd">
<svg xmlns="http://www.w3.org/2000/svg" version="1.1" width="862px" height="521px" style="shape-rendering:geometricPrecision; text-rendering:geometricPrecision; image-rendering:optimizeQuality; fill-rule:evenodd; clip-rule:evenodd" xmlns:xlink="http://www.w3.org/1999/xlink">
<g><path style="opacity:1" fill="#fdfdfd" d="M -0.5,-0.5 C 286.833,-0.5 574.167,-0.5 861.5,-0.5C 861.5,173.167 861.5,346.833 861.5,520.5C 574.167,520.5 286.833,520.5 -0.5,520.5C -0.5,346.833 -0.5,173.167 -0.5,-0.5 Z"/></g>
<g><path style="opacity:1" fill="#686768" d="M 428.5,20.5 C 432.461,21.8844 433.461,24.5511 431.5,28.5C 428.187,30.2544 426.52,29.2544 426.5,25.5C 426.437,23.4861 427.103,21.8194 428.5,20.5 Z"/></g>
<g><path style="opacity:1" fill="#fafbf8" d="M 428.5,22.5 C 429.649,22.7911 430.316,23.6244 430.5,25C 430.167,25.8333 429.833,26.6667 429.5,27.5C 428.548,25.9547 428.215,24.288 428.5,22.5 Z"/></g>
<g><path style="opacity:1" fill="#1e1d1e" d="M 359.5,27.5 C 361.364,26.2072 363.364,26.2072 365.5,27.5C 365.192,28.3081 364.692,28.9747 364,29.5C 362.951,27.8934 361.451,27.2267 359.5,27.5 Z"/></g>
<g><path style="opacity:1" fill="#595d60" d="M 498.5,26.5 C 499.765,27.5145 500.431,29.0145 500.5,31C 500.333,32.5 500.167,34 500,35.5C 499.667,33.1667 499.333,30.8333 499,28.5C 498.282,29.4506 497.449,29.6172 496.5,29C 497.381,28.2917 498.047,27.4584 498.5,26.5 Z"/></g>
<g><path style="opacity:1" fill="#565758" d="M 367.5,26.5 C 372.213,26.4676 373.713,28.8009 372,33.5C 370.333,36.1667 368.667,36.1667 367,33.5C 366.297,31.0709 366.463,28.7375 367.5,26.5 Z"/></g>
<g><path style="opacity:1" fill="#574d47" d="M 355.5,26.5 C 356.638,29.3035 356.805,32.3035 356,35.5C 355.933,32.953 355.099,30.7863 353.5,29C 354.381,28.2917 355.047,27.4584 355.5,26.5 Z"/></g>
<g><path style="opacity:1" fill="#ece9e7" d="M 368.5,27.5 C 370.293,27.8836 371.293,29.0503 371.5,31C 371.387,32.2798 370.72,33.1131 369.5,33.5C 368.534,31.604 368.201,29.604 368.5,27.5 Z"/></g>
<g><path style="opacity:1" fill="#4b4b4c" d="M 504.5,27.5 C 505.542,26.2089 506.708,26.2089 508,27.5C 508.667,29.8333 508.667,32.1667 508,34.5C 506.667,35.8333 505.333,35.8333 504,34.5C 503.204,31.9615 503.371,29.6282 504.5,27.5 Z"/></g>
<g><path style="opacity:1" fill="#eee9e7" d="M 504.5,27.5 C 505.496,27.4142 506.329,27.7476 507,28.5C 507.494,30.1341 507.66,31.8008 507.5,33.5C 506.5,33.5 505.5,33.5 504.5,33.5C 504.5,31.5 504.5,29.5 504.5,27.5 Z"/></g>
<g><path style="opacity:1" fill="#535252" d="M 571.5,52.5 C 570.034,51.653 569.2,50.3197 569,48.5C 567.833,49.6667 566.667,50.8333 565.5,52C 566.5,52.3333 567.5,52.6667 568.5,53C 566.741,53.7975 565.074,53.6309 563.5,52.5C 564.833,50.8333 566.167,49.1667 567.5,47.5C 566.349,46.269 565.183,46.269 564,47.5C 563.388,45.7627 564.054,44.7627 566,44.5C 567.285,44.9504 568.452,45.6171 569.5,46.5C 570.869,44.876 572.536,44.376 574.5,45C 575.602,47.4009 575.769,49.9009 575,52.5C 573.708,53.7911 572.542,53.7911 571.5,52.5 Z"/></g>
<g><path style="opacity:1" fill="#000000" d="M 435.5,47.5 C 435.5,138.167 435.5,228.833 435.5,319.5C 433.833,319.5 432.167,319.5 430.5,319.5C 430.5,229.167 430.5,138.833 430.5,48.5C 431.879,46.4031 433.545,46.0698 435.5,47.5 Z"/></g>
<g><path style="opacity:1" fill="#4b4b4b" d="M 435.5,47.5 C 436.499,138.332 436.833,229.332 436.5,320.5C 434.167,320.5 431.833,320.5 429.5,320.5C 429.167,229.665 429.501,138.998 430.5,48.5C 430.5,138.833 430.5,229.167 430.5,319.5C 432.167,319.5 433.833,319.5 435.5,319.5C 435.5,228.833 435.5,138.167 435.5,47.5 Z"/></g>
<g><path style="opacity:1" fill="#4b4a48" d="M 297.5,52.5 C 296.116,53.8009 294.616,53.8009 293,52.5C 292.333,50.5 292.333,48.5 293,46.5C 295.72,43.6409 297.386,43.9743 298,47.5C 296.365,46.1514 294.865,46.3181 293.5,48C 295.134,48.4935 296.801,48.6602 298.5,48.5C 298.768,50.099 298.434,51.4324 297.5,52.5 Z"/></g>
<g><path style="opacity:1" fill="#545552" d="M 288.5,45.5 C 289.634,47.9664 289.801,50.633 289,53.5C 288.933,50.953 288.099,48.7863 286.5,47C 287.416,46.7216 288.082,46.2216 288.5,45.5 Z"/></g>
<g><path style="opacity:1" fill="#e1dfdb" d="M 297.5,52.5 C 295.654,52.7778 294.32,52.1112 293.5,50.5C 294.689,49.5713 296.022,49.238 297.5,49.5C 297.5,50.5 297.5,51.5 297.5,52.5 Z"/></g>
<g><path style="opacity:1" fill="#e5efeb" d="M 571.5,52.5 C 571.5,50.5 571.5,48.5 571.5,46.5C 572.5,46.5 573.5,46.5 574.5,46.5C 574.66,48.1992 574.494,49.8659 574,51.5C 573.329,52.2524 572.496,52.5858 571.5,52.5 Z"/></g>
<g><path style="opacity:1" fill="#4f5253" d="M 301.5,44.5 C 305.254,45.8276 306.421,48.4942 305,52.5C 301.553,54.3526 299.72,53.3526 299.5,49.5C 299.437,47.4861 300.103,45.8194 301.5,44.5 Z"/></g>
<g><path style="opacity:1" fill="#e5e8e4" d="M 301.5,46.5 C 303.484,46.484 304.484,47.484 304.5,49.5C 304.547,51.0004 303.881,52.0004 302.5,52.5C 301.534,50.604 301.201,48.604 301.5,46.5 Z"/></g>
<g><path style="opacity:1" fill="#0e0e0e" d="M 366.5,51.5 C 367.822,51.33 368.989,51.6634 370,52.5C 386.438,142.063 402.271,231.73 417.5,321.5C 415.738,321.357 414.071,321.691 412.5,322.5C 396.111,233.768 380.111,144.934 364.5,56C 364.519,54.167 365.185,52.667 366.5,51.5 Z"/></g>
<g><path style="opacity:1" fill="#0f0f0f" d="M 497.5,51.5 C 498.822,51.33 499.989,51.6634 501,52.5C 501.667,55.5 501.667,58.5 501,61.5C 485.587,148.484 470.42,235.484 455.5,322.5C 453.5,322.167 451.5,321.833 449.5,321.5C 464.064,233.713 479.231,146.046 495,58.5C 495.379,55.9699 496.213,53.6365 497.5,51.5 Z"/></g>
<g><path style="opacity:1" fill="#111111" d="M 302.5,68.5 C 305.292,68.4521 307.125,69.7854 308,72.5C 338.267,156.677 368.767,240.677 399.5,324.5C 397.724,326.447 395.724,326.78 393.5,325.5C 362.765,241.136 332.098,156.636 301.5,72C 301.648,70.7441 301.982,69.5774 302.5,68.5 Z"/></g>
<g><path style="opacity:1" fill="#0f0f0f" d="M 561.5,68.5 C 565.225,68.7796 566.392,70.7796 565,74.5C 534.265,158.962 503.265,243.295 472,327.5C 470.155,326.95 468.655,325.95 467.5,324.5C 497.939,238.681 529.272,153.347 561.5,68.5 Z"/></g>
<g><path style="opacity:1" fill="#534742" d="M 225.5,74.5 C 226.638,77.3035 226.805,80.3035 226,83.5C 225.667,81.1667 225.333,78.8333 225,76.5C 224.346,77.6956 223.846,77.6956 223.5,76.5C 224.243,75.8182 224.909,75.1515 225.5,74.5 Z"/></g>
<g><path style="opacity:1" fill="#282728" d="M 230.5,74.5 C 235.041,74.3309 235.374,74.9975 231.5,76.5C 235.374,78.0025 235.041,78.6691 230.5,78.5C 230.5,77.1667 230.5,75.8333 230.5,74.5 Z"/></g>
<g><path style="opacity:1" fill="#4a4a49" d="M 634.5,75.5 C 635.568,74.5655 636.901,74.2322 638.5,74.5C 638.664,77.1873 638.497,79.854 638,82.5C 636.667,83.8333 635.333,83.8333 634,82.5C 633.204,79.9615 633.371,77.6282 634.5,75.5 Z"/></g>
<g><path style="opacity:1" fill="#ece9e5" d="M 634.5,75.5 C 635.5,75.5 636.5,75.5 637.5,75.5C 637.5,77.5 637.5,79.5 637.5,81.5C 636.5,81.5 635.5,81.5 634.5,81.5C 634.5,79.5 634.5,77.5 634.5,75.5 Z"/></g>
<g><path style="opacity:1" fill="#504d49" d="M 229.5,81.5 C 229.56,80.9569 229.893,80.6236 230.5,80.5C 231.795,81.0983 233.128,81.5983 234.5,82C 232.727,83.802 231.06,83.6353 229.5,81.5 Z"/></g>
<g><path style="opacity:1" fill="#504e4f" d="M 237.5,74.5 C 242.068,74.0826 243.568,76.0826 242,80.5C 240.857,83.9153 239.19,84.2486 237,81.5C 236.297,79.0709 236.463,76.7375 237.5,74.5 Z"/></g>
<g><path style="opacity:1" fill="#e5e5e6" d="M 238.5,75.5 C 239.693,75.9704 240.36,76.9704 240.5,78.5C 239.709,82.2846 238.709,82.2846 237.5,78.5C 237.685,77.4163 238.018,76.4163 238.5,75.5 Z"/></g>
<g><path style="opacity:1" fill="#4e4f50" d="M 626.5,74.5 C 628.167,74.5 629.833,74.5 631.5,74.5C 631.627,76.9154 631.793,79.2487 632,81.5C 630.069,84.1047 628.236,84.1047 626.5,81.5C 627.557,81.0941 628.891,81.0941 630.5,81.5C 630.64,79.8762 629.973,78.7096 628.5,78C 629.308,77.6924 629.975,77.1924 630.5,76.5C 629.349,75.269 628.183,75.269 627,76.5C 626.536,75.9056 626.369,75.2389 626.5,74.5 Z"/></g>
<g><path style="opacity:1" fill="#0f0f0f" d="M 242.5,96.5 C 244.903,96.393 246.736,97.393 248,99.5C 292.754,176.652 337.254,254.152 381.5,332C 380.728,333.221 379.728,334.221 378.5,335C 377.668,335.688 377.002,335.521 376.5,334.5C 331.176,256.919 286.343,179.253 242,101.5C 241.36,99.735 241.527,98.0683 242.5,96.5 Z"/></g>
<g><path style="opacity:1" fill="#0f0f0f" d="M 620.5,96.5 C 625.702,96.5622 626.869,98.8955 624,103.5C 579.156,181.167 534.156,258.5 489,335.5C 487.243,334.881 486.076,333.714 485.5,332C 486.88,328.742 488.38,325.575 490,322.5C 534.03,247.597 577.53,172.264 620.5,96.5 Z"/></g>
<g><path style="opacity:1" fill="#80807f" d="M 177.5,119.5 C 175.766,120.562 174.099,120.562 172.5,119.5C 173.595,117.642 174.929,115.975 176.5,114.5C 177.452,116.045 177.785,117.712 177.5,119.5 Z"/></g>
<g><path style="opacity:1" fill="#4a4a48" d="M 168.5,114.5 C 169.638,117.304 169.805,120.304 169,123.5C 168.667,121.167 168.333,118.833 168,116.5C 167.282,117.451 166.449,117.617 165.5,117C 166.571,116.148 167.571,115.315 168.5,114.5 Z"/></g>
<g><path style="opacity:1" fill="#242326" d="M 172.5,119.5 C 174.099,120.562 175.766,120.562 177.5,119.5C 177.209,120.649 176.376,121.316 175,121.5C 173.624,121.316 172.791,120.649 172.5,119.5 Z"/></g>
<g><path style="opacity:1" fill="#4b484a" d="M 180.5,114.5 C 181.822,114.33 182.989,114.663 184,115.5C 184.667,117.833 184.667,120.167 184,122.5C 182.667,123.833 181.333,123.833 180,122.5C 179.278,119.739 179.445,117.073 180.5,114.5 Z"/></g>
<g><path style="opacity:1" fill="#f0efec" d="M 181.5,115.5 C 183.28,116.99 183.946,118.99 183.5,121.5C 182.5,121.5 181.5,121.5 180.5,121.5C 180.325,119.379 180.659,117.379 181.5,115.5 Z"/></g>
<g><path style="opacity:1" fill="#535152" d="M 686.5,114.5 C 687.163,116.042 687.83,117.709 688.5,119.5C 689.357,118.264 690.023,116.931 690.5,115.5C 691.723,114.386 693.056,114.219 694.5,115C 695.602,117.401 695.769,119.901 695,122.5C 694.439,123.022 693.772,123.355 693,123.5C 691.667,122.833 690.333,122.167 689,121.5C 688.055,121.905 687.388,122.572 687,123.5C 685.796,122.141 684.296,121.141 682.5,120.5C 683.467,118.21 684.8,116.21 686.5,114.5 Z"/></g>
<g><path style="opacity:1" fill="#ebf1e5" d="M 691.5,115.5 C 692.496,115.414 693.329,115.748 694,116.5C 694.494,118.134 694.66,119.801 694.5,121.5C 693.5,121.5 692.5,121.5 691.5,121.5C 691.5,119.5 691.5,117.5 691.5,115.5 Z"/></g>
<g><path style="opacity:1" fill="#0f0f0f" d="M 188.5,134.5 C 189.552,134.351 190.552,134.517 191.5,135C 249.64,204.154 307.64,273.321 365.5,342.5C 364.52,343.981 363.353,345.315 362,346.5C 303.556,278.324 245.556,209.658 188,140.5C 187.322,138.402 187.489,136.402 188.5,134.5 Z"/></g>
<g><path style="opacity:1" fill="#0e0e0e" d="M 675.5,134.5 C 679.225,134.78 680.392,136.78 679,140.5C 621.137,209.025 563.304,277.525 505.5,346C 502.667,345.833 501.167,344.333 501,341.5C 559.348,272.652 617.515,203.652 675.5,134.5 Z"/></g>
<g><path style="opacity:1" fill="#454343" d="M 733.5,163.5 C 739.373,163.598 739.706,164.598 734.5,166.5C 738.374,168.002 738.041,168.669 733.5,168.5C 733.5,166.833 733.5,165.167 733.5,163.5 Z"/></g>
<g><path style="opacity:1" fill="#4b555f" d="M 118.5,164.5 C 119.748,165.334 120.415,166.667 120.5,168.5C 120.333,169.833 120.167,171.167 120,172.5C 119.933,169.953 119.099,167.786 117.5,166C 118.056,165.617 118.389,165.117 118.5,164.5 Z"/></g>
<g><path style="opacity:1" fill="#4f5151" d="M 131.5,165.5 C 132.542,164.209 133.708,164.209 135,165.5C 135.667,167.833 135.667,170.167 135,172.5C 133.667,173.833 132.333,173.833 131,172.5C 130.204,169.961 130.371,167.628 131.5,165.5 Z"/></g>
<g><path style="opacity:1" fill="#e4eae8" d="M 131.5,165.5 C 133.969,166.607 134.969,168.607 134.5,171.5C 133.5,171.5 132.5,171.5 131.5,171.5C 131.5,169.5 131.5,167.5 131.5,165.5 Z"/></g>
<g><path style="opacity:1" fill="#555354" d="M 123.5,164.5 C 125.167,164.5 126.833,164.5 128.5,164.5C 128.664,167.187 128.497,169.854 128,172.5C 126.12,173.93 124.62,173.596 123.5,171.5C 124.557,171.094 125.891,171.094 127.5,171.5C 127.64,169.876 126.973,168.71 125.5,168C 125.957,167.586 126.291,167.086 126.5,166.5C 125.726,165.289 124.893,165.289 124,166.5C 123.536,165.906 123.369,165.239 123.5,164.5 Z"/></g>
<g><path style="opacity:1" fill="#545451" d="M 732.5,171.5 C 732.56,170.957 732.893,170.624 733.5,170.5C 734.795,171.098 736.128,171.598 737.5,172C 735.727,173.802 734.06,173.635 732.5,171.5 Z"/></g>
<g><path style="opacity:1" fill="#545555" d="M 741.5,163.5 C 745.254,164.828 746.421,167.494 745,171.5C 741.661,174.057 739.828,173.057 739.5,168.5C 739.437,166.486 740.103,164.819 741.5,163.5 Z"/></g>
<g><path style="opacity:1" fill="#e1e6e4" d="M 741.5,165.5 C 742.693,165.97 743.36,166.97 743.5,168.5C 742.709,172.285 741.709,172.285 740.5,168.5C 740.685,167.416 741.018,166.416 741.5,165.5 Z"/></g>
<g><path style="opacity:1" fill="#0e0e0e" d="M 141.5,181.5 C 142.873,181.343 144.207,181.51 145.5,182C 214.858,240.03 284.192,298.03 353.5,356C 351.333,356.833 349.833,358.333 349,360.5C 279.424,302.602 210.09,244.268 141,185.5C 140.421,184.072 140.588,182.738 141.5,181.5 Z"/></g>
<g><path style="opacity:1" fill="#0f0f0f" d="M 720.5,181.5 C 722.199,181.34 723.866,181.506 725.5,182C 726.022,182.561 726.355,183.228 726.5,184C 724.553,186.951 722.219,189.618 719.5,192C 652.396,247.758 585.23,303.591 518,359.5C 516.225,358.73 514.725,357.563 513.5,356C 580.257,299.564 647.257,243.564 714.5,188C 716.706,185.963 718.706,183.797 720.5,181.5 Z"/></g>
<g><path style="opacity:1" fill="#514f4e" d="M 87.5,226.5 C 88.8997,223.233 87.8997,222.233 84.5,223.5C 83.3044,223.154 83.3044,222.654 84.5,222C 88.1114,220.746 89.6114,221.912 89,225.5C 88.6174,226.056 88.1174,226.389 87.5,226.5 Z"/></g>
<g><path style="opacity:1" fill="#3e4144" d="M 774.5,222.5 C 775.849,221.203 777.182,221.37 778.5,223C 777.181,223.195 775.847,223.028 774.5,222.5 Z"/></g>
<g><path style="opacity:1" fill="#575759" d="M 780.5,221.5 C 782.144,221.286 783.644,221.62 785,222.5C 785.769,225.099 785.602,227.599 784.5,230C 782.567,230.783 781.067,230.283 780,228.5C 779.444,226.115 779.61,223.782 780.5,221.5 Z"/></g>
<g><path style="opacity:1" fill="#4a4a4b" d="M 79.5,221.5 C 80.6378,224.304 80.8045,227.304 80,230.5C 79.9326,227.953 79.0993,225.786 77.5,224C 78.3805,223.292 79.0472,222.458 79.5,221.5 Z"/></g>
<g><path style="opacity:1" fill="#615f5e" d="M 774.5,222.5 C 775.105,224.026 776.271,225.026 778,225.5C 779.08,228.237 778.246,229.904 775.5,230.5C 772.747,228.957 771.913,226.624 773,223.5C 773.383,222.944 773.883,222.611 774.5,222.5 Z"/></g>
<g><path style="opacity:1" fill="#ebe8e3" d="M 781.5,222.5 C 782.496,222.414 783.329,222.748 784,223.5C 784.494,225.134 784.66,226.801 784.5,228.5C 783.5,228.5 782.5,228.5 781.5,228.5C 781.5,226.5 781.5,224.5 781.5,222.5 Z"/></g>
<g><path style="opacity:1" fill="#616568" d="M 94.5,222.5 C 96.4411,224.011 96.9411,226.011 96,228.5C 94.2161,231.003 92.5494,231.003 91,228.5C 90.3333,226.5 90.3333,224.5 91,222.5C 92.2917,221.209 93.4583,221.209 94.5,222.5 Z"/></g>
<g><path style="opacity:1" fill="#f3f4e9" d="M 94.5,222.5 C 94.7989,224.604 94.4656,226.604 93.5,228.5C 93.1667,227.5 92.8333,226.5 92.5,225.5C 92.6399,223.97 93.3065,222.97 94.5,222.5 Z"/></g>
<g><path style="opacity:1" fill="#f4f8f4" d="M 774.5,226.5 C 775.675,226.281 776.675,226.614 777.5,227.5C 775.948,228.798 774.948,228.465 774.5,226.5 Z"/></g>
<g><path style="opacity:1" fill="#393636" d="M 87.5,226.5 C 87.0472,227.458 86.3805,228.292 85.5,229C 86.8333,229.333 88.1667,229.667 89.5,230C 87.4213,230.808 85.4213,230.641 83.5,229.5C 84.2826,227.712 85.6159,226.712 87.5,226.5 Z"/></g>
<g><path style="opacity:1" fill="#0f0f0f" d="M 103.5,235.5 C 105.655,235.372 107.655,235.872 109.5,237C 186.514,281.506 263.514,326.006 340.5,370.5C 341.521,371.002 341.688,371.668 341,372.5C 339.809,374.847 337.976,375.68 335.5,375C 259.032,330.17 182.365,285.837 105.5,242C 102.679,240.379 102.013,238.212 103.5,235.5 Z"/></g>
<g><path style="opacity:1" fill="#0f0f0f" d="M 759.5,235.5 C 761.948,235.085 763.281,236.085 763.5,238.5C 762.946,240.628 761.613,242.128 759.5,243C 682.551,287.055 605.717,331.222 529,375.5C 527.153,374.831 525.986,373.497 525.5,371.5C 603.627,326.113 681.627,280.779 759.5,235.5 Z"/></g>
<g><path style="opacity:1" fill="#4f4f51" d="M 56.5,285.5 C 57.6378,288.304 57.8045,291.304 57,294.5C 56.8528,291.89 56.0194,289.556 54.5,287.5C 55.2427,286.818 55.9094,286.151 56.5,285.5 Z"/></g>
<g><path style="opacity:1" fill="#474a4d" d="M 803.5,286.5 C 805.288,285.378 807.288,285.211 809.5,286C 807.932,288.304 806.765,290.804 806,293.5C 805.313,291.08 805.813,288.913 807.5,287C 806.207,286.51 804.873,286.343 803.5,286.5 Z"/></g>
<g><path style="opacity:1" fill="#4b4e5a" d="M 50.5,285.5 C 51.6378,288.304 51.8045,291.304 51,294.5C 50.6667,292.167 50.3333,289.833 50,287.5C 49.2825,288.451 48.4491,288.617 47.5,288C 48.5707,287.148 49.5707,286.315 50.5,285.5 Z"/></g>
<g><path style="opacity:1" fill="#5d5c5d" d="M 811.5,292.5 C 810.378,290.712 810.211,288.712 811,286.5C 814.111,284.728 815.944,285.561 816.5,289C 816.4,291.37 815.4,293.203 813.5,294.5C 812.478,294.145 811.811,293.478 811.5,292.5 Z"/></g>
<g><path style="opacity:1" fill="#e8edea" d="M 811.5,292.5 C 811.051,290.023 811.717,288.023 813.5,286.5C 814.466,288.396 814.799,290.396 814.5,292.5C 813.5,292.5 812.5,292.5 811.5,292.5 Z"/></g>
<g><path style="opacity:1" fill="#585654" d="M 61.5,285.5 C 66.0685,285.083 67.5685,287.083 66,291.5C 64.8567,294.915 63.19,295.249 61,292.5C 60.2967,290.071 60.4634,287.738 61.5,285.5 Z"/></g>
<g><path style="opacity:1" fill="#e5e7e8" d="M 62.5,286.5 C 63.6935,286.97 64.3601,287.97 64.5,289.5C 63.7092,293.285 62.7092,293.285 61.5,289.5C 61.685,288.416 62.0183,287.416 62.5,286.5 Z"/></g>
<g><path style="opacity:1" fill="#101010" d="M 75.5,294.5 C 161.926,324.897 247.926,356.064 333.5,388C 332.89,389.947 332.057,391.781 331,393.5C 245.518,362.419 160.185,331.086 75,299.5C 74.3603,297.735 74.5269,296.068 75.5,294.5 Z"/></g>
<g><path style="opacity:1" fill="#101010" d="M 787.5,294.5 C 791.35,294.701 792.35,296.534 790.5,300C 706.085,331.119 621.419,361.952 536.5,392.5C 532.257,389.819 532.59,387.652 537.5,386C 621.089,355.683 704.422,325.183 787.5,294.5 Z"/></g>
<g><path style="opacity:1" fill="#595456" d="M 37.5,352.5 C 41.9757,352.822 43.4757,355.156 42,359.5C 40.6883,361.658 39.0217,361.991 37,360.5C 36.2782,357.739 36.4448,355.073 37.5,352.5 Z"/></g>
<g><path style="opacity:1" fill="#595757" d="M 826.5,357.5 C 827.791,358.542 827.791,359.708 826.5,361C 824.888,361.72 823.388,361.554 822,360.5C 821.776,357.89 822.276,355.39 823.5,353C 827.332,352.486 828.332,353.986 826.5,357.5 Z"/></g>
<g><path style="opacity:1" fill="#000000" d="M 421.5,354.5 C 459.176,351.407 486.009,366.741 502,400.5C 512.39,432.652 505.223,460.152 480.5,483C 448.908,505.313 417.575,504.979 386.5,482C 362.494,458.304 355.994,430.47 367,398.5C 378.069,374.901 396.236,360.234 421.5,354.5 Z"/></g>
<g><path style="opacity:1" fill="#e7e8e6" d="M 37.5,354.5 C 38.5,354.5 39.5,354.5 40.5,354.5C 40.7989,356.604 40.4656,358.604 39.5,360.5C 37.7175,358.977 37.0508,356.977 37.5,354.5 Z"/></g>
<g><path style="opacity:1" fill="#4b4c4b" d="M 44.5,352.5 C 48.9757,352.822 50.4757,355.156 49,359.5C 47.6883,361.658 46.0217,361.991 44,360.5C 43.2782,357.739 43.4448,355.073 44.5,352.5 Z"/></g>
<g><path style="opacity:1" fill="#5d5e5e" d="M 830.5,352.5 C 833.734,352.237 835.068,353.737 834.5,357C 834.825,361.157 833.158,362.324 829.5,360.5C 828.025,357.557 828.358,354.891 830.5,352.5 Z"/></g>
<g><path style="opacity:1" fill="#e8eae4" d="M 830.5,354.5 C 831.5,354.5 832.5,354.5 833.5,354.5C 833.949,356.977 833.283,358.977 831.5,360.5C 830.534,358.604 830.201,356.604 830.5,354.5 Z"/></g>
<g><path style="opacity:1" fill="#e7eae1" d="M 44.5,354.5 C 45.5,354.5 46.5,354.5 47.5,354.5C 47.7989,356.604 47.4656,358.604 46.5,360.5C 44.7175,358.977 44.0508,356.977 44.5,354.5 Z"/></g>
<g><path style="opacity:1" fill="#e7e5e5" d="M 826.5,357.5 C 825.246,361.31 824.246,361.31 823.5,357.5C 824.5,357.5 825.5,357.5 826.5,357.5 Z"/></g>
<g><path style="opacity:1" fill="#40434b" d="M 31.5,353.5 C 32.7479,354.334 33.4146,355.667 33.5,357.5C 33.3333,358.833 33.1667,360.167 33,361.5C 32.9326,358.953 32.0993,356.786 30.5,355C 31.056,354.617 31.3893,354.117 31.5,353.5 Z"/></g>
<g><path style="opacity:1" fill="#0f0f0f" d="M 58.5,358.5 C 148.101,374.257 237.768,389.591 327.5,404.5C 327.5,406.833 327.5,409.167 327.5,411.5C 237.826,395.713 148.16,379.88 58.5,364C 57.2475,362.172 57.2475,360.339 58.5,358.5 Z"/></g>
<g><path style="opacity:1" fill="#101010" d="M 802.5,358.5 C 804.527,358.338 806.527,358.505 808.5,359C 809.747,360.494 809.747,361.994 808.5,363.5C 718.901,379.871 629.235,395.871 539.5,411.5C 539.5,409.5 539.5,407.5 539.5,405.5C 627.311,390.102 714.978,374.435 802.5,358.5 Z"/></g>
<g><path style="opacity:1" fill="#555456" d="M 27.5,430.5 C 26.9002,429.1 25.9002,428.1 24.5,427.5C 23.596,426.791 23.2627,425.791 23.5,424.5C 25.3224,421.962 27.3224,421.962 29.5,424.5C 31.1222,422.561 32.9555,422.228 35,423.5C 35.769,426.099 35.6023,428.599 34.5,431C 32.5211,431.684 30.8544,431.184 29.5,429.5C 28.8165,429.863 28.1499,430.196 27.5,430.5 Z"/></g>
<g><path style="opacity:1" fill="#545858" d="M 838.5,422.5 C 842.254,423.828 843.421,426.494 842,430.5C 838.553,432.353 836.72,431.353 836.5,427.5C 836.437,425.486 837.103,423.819 838.5,422.5 Z"/></g>
<g><path style="opacity:1" fill="#010101" d="M 53.5,424.5 C 143.833,424.5 234.167,424.5 324.5,424.5C 324.357,426.262 324.691,427.929 325.5,429.5C 234.502,430.667 143.502,430.833 52.5,430C 51.2427,427.924 51.576,426.09 53.5,424.5 Z"/></g>
<g><path style="opacity:1" fill="#010101" d="M 540.5,424.5 C 631.501,424.333 722.501,424.5 813.5,425C 814.833,426.667 814.833,428.333 813.5,430C 722.501,430.5 631.501,430.667 540.5,430.5C 540.5,428.5 540.5,426.5 540.5,424.5 Z"/></g>
<g><path style="opacity:1" fill="#ebebe7" d="M 838.5,424.5 C 839.693,424.97 840.36,425.97 840.5,427.5C 839.709,431.285 838.709,431.285 837.5,427.5C 837.685,426.416 838.018,425.416 838.5,424.5 Z"/></g>
<g><path style="opacity:1" fill="#e3e6e5" d="M 24.5,427.5 C 24.5,426.5 24.5,425.5 24.5,424.5C 25.5,424.5 26.5,424.5 27.5,424.5C 27.5,425.5 27.5,426.5 27.5,427.5C 26.5,427.5 25.5,427.5 24.5,427.5 Z"/></g>
<g><path style="opacity:1" fill="#f3f4ed" d="M 31.5,424.5 C 33.4841,424.484 34.4841,425.484 34.5,427.5C 34.5472,429 33.8805,430 32.5,430.5C 31.5344,428.604 31.2011,426.604 31.5,424.5 Z"/></g>
<g><path style="opacity:1" fill="#b0ada7" d="M 23.5,424.5 C 23.2627,425.791 23.596,426.791 24.5,427.5C 25.9002,428.1 26.9002,429.1 27.5,430.5C 26.3038,432.981 24.8038,432.981 23,430.5C 22.2109,428.288 22.3775,426.288 23.5,424.5 Z"/></g>
<g><path style="opacity:1" fill="#494949" d="M 831.5,422.5 C 835.254,423.828 836.421,426.494 835,430.5C 833.612,431.554 832.112,431.72 830.5,431C 834.5,430 834.5,429 830.5,428C 829.156,425.856 829.49,424.023 831.5,422.5 Z"/></g>
<g><path style="opacity:1" fill="#e8e9e1" d="M 831.5,424.5 C 834.674,424.952 835.007,425.952 832.5,427.5C 830.481,426.867 830.147,425.867 831.5,424.5 Z"/></g>
<g><path style="opacity:1" fill="#0f0f0f" d="M 320.5,443.5 C 322.833,443.5 325.167,443.5 327.5,443.5C 327.5,445.5 327.5,447.5 327.5,449.5C 237.85,465.425 148.184,480.925 58.5,496C 56.8603,493.224 57.527,491.224 60.5,490C 135.158,477.001 209.824,464.001 284.5,451C 296.701,448.819 308.701,446.319 320.5,443.5 Z"/></g>
<g><path style="opacity:1" fill="#0f0f0f" d="M 539.5,443.5 C 629.284,458.731 718.951,474.564 808.5,491C 810.353,494.447 809.353,496.28 805.5,496.5C 716.399,480.907 627.399,464.907 538.5,448.5C 539.309,446.929 539.643,445.262 539.5,443.5 Z"/></g>
<g><path style="opacity:1" fill="#47494b" d="M 30.5,492.5 C 31.8333,492.5 33.1667,492.5 34.5,492.5C 34.3184,494.591 34.6518,496.591 35.5,498.5C 33.2253,502.403 31.2253,502.403 29.5,498.5C 29.8497,496.509 30.1831,494.509 30.5,492.5 Z"/></g>
<g><path style="opacity:1" fill="#cdccca" d="M 31.5,493.5 C 33.337,493.639 33.6704,494.306 32.5,495.5C 31.7025,495.043 31.3691,494.376 31.5,493.5 Z"/></g>
<g><path style="opacity:1" fill="#3a323c" d="M 40.5,493.5 C 39.5041,493.414 38.6708,493.748 38,494.5C 37.5065,496.134 37.3398,497.801 37.5,499.5C 36.3775,497.712 36.2109,495.712 37,493.5C 38.2917,492.209 39.4583,492.209 40.5,493.5 Z"/></g>
<g><path style="opacity:1" fill="#e4e2e0" d="M 40.5,493.5 C 40.5,495.5 40.5,497.5 40.5,499.5C 39.5,499.5 38.5,499.5 37.5,499.5C 37.3398,497.801 37.5065,496.134 38,494.5C 38.6708,493.748 39.5041,493.414 40.5,493.5 Z"/></g>
<g><path style="opacity:1" fill="#e7ebe6" d="M 30.5,497.5 C 31.675,497.281 32.675,497.614 33.5,498.5C 31.9483,499.798 30.9483,499.465 30.5,497.5 Z"/></g>
<g><path style="opacity:1" fill="#585c63" d="M 827.5,492.5 C 828.765,493.514 829.431,495.014 829.5,497C 829.333,498.5 829.167,500 829,501.5C 828.505,499.527 828.338,497.527 828.5,495.5C 827.448,495.649 826.448,495.483 825.5,495C 826.381,494.292 827.047,493.458 827.5,492.5 Z"/></g>
<g><path style="opacity:1" fill="#494547" d="M 833.5,493.5 C 834.542,492.209 835.708,492.209 837,493.5C 837.667,495.833 837.667,498.167 837,500.5C 835.667,501.833 834.333,501.833 833,500.5C 832.204,497.961 832.371,495.628 833.5,493.5 Z"/></g>
<g><path style="opacity:1" fill="#f0f0eb" d="M 833.5,493.5 C 834.496,493.414 835.329,493.748 836,494.5C 836.494,496.134 836.66,497.801 836.5,499.5C 835.5,499.5 834.5,499.5 833.5,499.5C 833.5,497.5 833.5,495.5 833.5,493.5 Z"/></g>
<g><path style="opacity:1" fill="#434647" d="M 840.5,493.5 C 841.542,492.209 842.708,492.209 844,493.5C 844.667,495.833 844.667,498.167 844,500.5C 842.667,501.833 841.333,501.833 840,500.5C 839.204,497.961 839.371,495.628 840.5,493.5 Z"/></g>
<g><path style="opacity:1" fill="#edf1ed" d="M 840.5,493.5 C 841.496,493.414 842.329,493.748 843,494.5C 843.494,496.134 843.66,497.801 843.5,499.5C 842.5,499.5 841.5,499.5 840.5,499.5C 840.5,497.5 840.5,495.5 840.5,493.5 Z"/></g>
<g><path style="opacity:1" fill="#585858" d="M 40.5,493.5 C 42.4411,495.011 42.9411,497.011 42,499.5C 40.1962,501.981 38.6962,501.981 37.5,499.5C 38.5,499.5 39.5,499.5 40.5,499.5C 40.5,497.5 40.5,495.5 40.5,493.5 Z"/></g>
</svg>
