<?xml version="1.0" encoding="UTF-8"?>
<!DOCTYPE svg PUBLIC "-//W3C//DTD SVG 1.1//EN" "http://www.w3.org/Graphics/SVG/1.1/DTD/svg11.dtd">
<svg xmlns="http://www.w3.org/2000/svg" version="1.1" width="1000px" height="1000px" style="shape-rendering:geometricPrecision; text-rendering:geometricPrecision; image-rendering:optimizeQuality; fill-rule:evenodd; clip-rule:evenodd" xmlns:xlink="http://www.w3.org/1999/xlink">
<g><path style="opacity:0.984" fill="#212c72" d="M 211.5,158.5 C 409.43,271.775 607.096,385.442 804.5,499.5C 607.493,613.339 410.16,726.672 212.5,839.5C 211.5,612.501 211.167,385.501 211.5,158.5 Z"/></g>
<g><path style="opacity:1" fill="#386d8e" d="M 253.5,229.5 C 252.5,409.333 252.167,589.333 252.5,769.5C 251.167,589.333 251.167,409 252.5,228.5C 253.107,228.624 253.44,228.957 253.5,229.5 Z"/></g>
<g><path style="opacity:1" fill="#499ba2" d="M 253.5,229.5 C 410.466,318.983 567.132,408.983 723.5,499.5C 566.608,589.776 409.608,679.776 252.5,769.5C 252.167,589.333 252.5,409.333 253.5,229.5 Z"/></g>
</svg>
