<svg width="708" height="867" viewBox="0 0 708 867" fill="none" xmlns="http://www.w3.org/2000/svg">
<g clip-path="url(#clip0_2_11)">
<path opacity="0.984" fill-rule="evenodd" clip-rule="evenodd" d="M344.904 147.005C459.679 344.069 574.03 541.341 687.957 738.82C460.425 738.904 232.863 738.386 5.2704 737.268C117.904 540.181 231.115 343.427 344.904 147.005Z" fill="#212C72"/>
<path fill-rule="evenodd" clip-rule="evenodd" d="M345.777 229.493C254.995 384.733 164.707 540.451 74.9114 696.647C163.841 539.951 254.007 383.778 345.411 228.127C345.875 228.538 345.997 228.993 345.777 229.493Z" fill="#386D8E"/>
<path fill-rule="evenodd" clip-rule="evenodd" d="M345.777 229.493C436.972 385.47 527.649 541.746 617.809 698.32C436.799 698.055 255.833 697.497 74.9114 696.647C164.707 540.451 254.995 384.733 345.777 229.493Z" fill="#499BA2"/>
</g>
<defs>
<clipPath id="clip0_2_11">
<rect width="1000" height="1000" fill="white" transform="translate(240.99 -96.01) rotate(30)"/>
</clipPath>
</defs>
</svg>
